<svg width="108" height="24" viewBox="0 0 108 24" version="1.1" xmlns="http://www.w3.org/2000/svg"><title>masthead</title><g id="Page-1" stroke="none" stroke-width="1" fill="none" fill-rule="evenodd"><g id="masthead"><g id="Imported-Layers"><path d="M0.955862069,19.7275 L2.34744828,17.2525 C2.5857931,16.86375 3.14813793,16.92375 3.35544828,17.0725 C3.47337931,17.1325 5.60606897,18.71375 7.56124138,18.71375 C8.74551724,18.71375 9.60455172,17.9675 9.60455172,16.92375 C9.60455172,15.67125 8.568,14.71625 6.55324138,13.91125 C4.00717241,12.89875 0.808137931,10.89875 0.808137931,7.32125 C0.808137931,4.36875 3.08855172,1.38625 7.64937931,1.38625 C10.7292414,1.38625 13.0990345,2.96625 13.9878621,3.62375 C14.3428966,3.83125 14.2845517,4.36875 14.1653793,4.5775 L12.6546207,6.8725 C12.4473103,7.2025 11.9147586,7.47 11.6478621,7.26125 C11.3809655,7.11125 9.21972414,5.47125 7.41227586,5.47125 C6.34717241,5.47125 5.54648276,6.1875 5.54648276,6.9925 C5.54648276,8.09625 6.43531034,8.93125 8.77531034,9.88625 C11.0855172,10.81 14.7575172,12.63 14.7575172,16.685 C14.7575172,19.7575 12.122069,22.85875 7.76855172,22.85875 C3.9177931,22.85875 1.78510345,21.2475 1.10358621,20.5625 C0.808137931,20.26375 0.718758621,20.145 0.955862069,19.7275" id="Fill-1" fill="#504D47"/><path d="M17.1310345,2.25125 C17.1310345,1.9525 17.3681379,1.68375 17.6648276,1.68375 L24.8908966,1.68375 C30.6074483,1.68375 35.2862069,6.3675 35.2862069,12.0925 C35.2862069,17.87875 30.6074483,22.56 24.8908966,22.56 L17.6648276,22.56 C17.3681379,22.56 17.1310345,22.2925 17.1310345,21.99375 L17.1310345,2.25125 L17.1310345,2.25125 Z M24.5954483,18.14625 C27.9422069,18.14625 30.3703448,15.4925 30.3703448,12.0925 C30.3703448,8.7225 27.9422069,6.06875 24.5954483,6.06875 L21.7514483,6.06875 L21.7514483,18.14625 L24.5954483,18.14625 L24.5954483,18.14625 Z" id="Fill-2" fill="#504D47"/><path d="M37.6311724,1.9225 C37.6311724,1.625 37.898069,1.38625 38.1935172,1.38625 L38.9346207,1.38625 L50.7513103,12.8375 L50.7811034,12.8375 L50.7811034,2.25125 C50.7811034,1.9525 51.0182069,1.68375 51.3434483,1.68375 L54.8975172,1.68375 C55.1942069,1.68375 55.4598621,1.9525 55.4598621,2.25125 L55.4598621,22.32125 C55.4598621,22.62 55.1942069,22.85875 54.8975172,22.85875 L54.4245517,22.85875 C54.3351724,22.85875 54.098069,22.76875 54.0384828,22.71 L42.3397241,10.87 L42.309931,10.87 L42.309931,21.99375 C42.309931,22.2925 42.0728276,22.56 41.7475862,22.56 L38.2233103,22.56 C37.9266207,22.56 37.6609655,22.2925 37.6609655,21.99375 L37.6311724,1.9225" id="Fill-3" fill="#504D47"/><path d="M70.4308966,23.51875 C67.3348966,23.51875 64.4275862,22.30375 62.2452414,20.095 C60.0591724,17.88375 58.8550345,14.94375 58.8550345,11.815 C58.8550345,8.685 60.0591724,5.745 62.2452414,3.53375 C64.4275862,1.32625 67.3348966,0.11 70.4308966,0.11 C73.5281379,0.11 76.4354483,1.32625 78.6177931,3.53375 L91.2177931,16.28 C92.3946207,17.47125 93.9624828,18.12625 95.6333793,18.12625 C97.3017931,18.12625 98.8696552,17.47125 100.047724,16.28 C101.225793,15.08875 101.875034,13.5025 101.875034,11.815 C101.875034,10.1275 101.225793,8.5425 100.047724,7.34875 C98.8684138,6.1575 97.3017931,5.5025 95.6333793,5.5025 C93.9637241,5.5025 92.3958621,6.1575 91.2177931,7.34875 L89.0627586,9.53375 L85.2902069,5.7175 L87.4464828,3.53375 C89.6288276,1.32625 92.5361379,0.11 95.6333793,0.11 C98.7293793,0.11 101.635448,1.32625 103.819034,3.53375 C106.005103,5.74625 107.209241,8.68625 107.209241,11.815 C107.209241,14.9425 106.005103,17.88375 103.819034,20.095 C101.635448,22.30375 98.7293793,23.51875 95.6333793,23.51875 C92.5361379,23.51875 89.6288276,22.30375 87.4464828,20.095 L74.8452414,7.34875 C73.6684138,6.1575 72.1005517,5.5025 70.4308966,5.5025 C68.7624828,5.5025 67.1946207,6.1575 66.0177931,7.34875 C64.8372414,8.54375 64.188,10.12875 64.188,11.815 C64.188,13.50125 64.8372414,15.08625 66.0165517,16.28 C67.1946207,17.47125 68.7624828,18.12625 70.4308966,18.12625 C72.1005517,18.12625 73.6684138,17.47125 74.8452414,16.28 L77.0015172,14.09625 L80.7728276,17.91125 L78.6177931,20.095 C76.4342069,22.30375 73.5268966,23.51875 70.4308966,23.51875" id="Fill-4" fill="#AED800"/></g></g></g></svg>